<svg xmlns="http://www.w3.org/2000/svg" viewBox="0 0 1400 950" width="1400" height="950">
  <defs>
    <marker id="arr" markerWidth="10" markerHeight="7" refX="9" refY="3.5" orient="auto"><polygon points="0 0,10 3.5,0 7" fill="#4B5563"/></marker>
    <marker id="arr-org" markerWidth="10" markerHeight="7" refX="9" refY="3.5" orient="auto"><polygon points="0 0,10 3.5,0 7" fill="#FF9900"/></marker>
  </defs>
  <rect x="0" y="0" width="1400" height="50" fill="#232F3E"/>
  <text x="10" y="25" font-size="18" font-weight="bold" fill="white">AWS Architecture Diagram - us-east-1</text>
  <rect x="60" y="60" width="120" height="60" fill="#8B5CF6" stroke="#232F3E" rx="5"/>
  <rect x="200" y="60" width="120" height="60" fill="#FF9900" stroke="#232F3E" rx="5"/>
  <rect x="340" y="60" width="120" height="60" fill="#DC2626" stroke="#232F3E" rx="5"/>
  <rect x="480" y="60" width="120" height="60" fill="#8B5CF6" stroke="#232F3E" rx="5"/>
  <text x="70" y="90" font-size="14" font-weight="bold" fill="white">CloudFront</text>
  <text x="210" y="90" font-size="14" font-weight="bold" fill="white">Route 53</text>
  <text x="350" y="90" font-size="14" font-weight="bold" fill="white">WAF</text>
  <text x="490" y="90" font-size="14" font-weight="bold" fill="white">CloudFront</text>
  <rect x="50" y="135" width="1300" height="25" fill="#FF9900"/>
  <rect x="165" y="165" width="1170" height="755" fill="#FAFBFC" stroke="#232F3E" stroke-dasharray="6,3"/>
  <rect x="180" y="175" width="1140" height="735" fill="#FFFEF7" stroke="#FF9900" stroke-width="2" rx="6"/>
  <rect x="190" y="185" width="340" height="715" fill="#F8F9FA" stroke="#232F3E" stroke-dasharray="4,3" rx="4"/>
  <rect x="540" y="185" width="340" height="715" fill="#F8F9FA" stroke="#232F3E" stroke-dasharray="4,3" rx="4"/>
  <text x="305" y="200" font-size="10" font-weight="bold" fill="#232F3E">us-east-1a</text>
  <text x="655" y="200" font-size="10" font-weight="bold" fill="#232F3E">us-east-1b</text>
  <rect x="210" y="220" width="100" height="60" fill="#F1F8E9" stroke="#2E7D32" stroke-width="1.5"/>
  <rect x="210" y="330" width="100" height="60" fill="#E8F0FE" stroke="#1565C0" stroke-width="1.5"/>
  <rect x="210" y="440" width="100" height="60" fill="#F3E5F5" stroke="#6A1B9A" stroke-width="1.5"/>
  <text x="215" y="250" font-size="10" fill="#92400E">VPC CIDR: 10.0.0.0/16</text>
  <text x="220" y="275" font-size="10" fill="#2E7D32">Public Subnet</text>
  <text x="220" y="290" font-size="8" fill="#2E7D32">10.0.1.0/24</text>
  <text x="220" y="385" font-size="10" fill="#1565C0">Private Subnet</text>
  <text x="220" y="400" font-size="8" fill="#1565C0">10.0.2.0/24</text>
  <text x="220" y="495" font-size="10" fill="#6A1B9A">Database Subnet</text>
  <text x="220" y="510" font-size="8" fill="#6A1B9A">10.0.3.0/24</text>
  <rect x="330" y="220" width="150" height="60" fill="white" stroke="#E5E7EB" rx="5"/>
  <rect x="330" y="230" width="150" height="10" fill="#FF9900" rx="5"/>
  <rect x="330" y="235" width="150" height="5" fill="#FF9900"/>
  <text x="335" y="250" font-size="11" font-weight="bold" fill="#333">Internet Gateway</text>
  <rect x="330" y="330" width="150" height="60" fill="white" stroke="#E5E7EB" rx="5"/>
  <rect x="330" y="340" width="150" height="10" fill="#FF9900" rx="5"/>
  <rect x="330" y="345" width="150" height="5" fill="#FF9900"/>
  <text x="335" y="360" font-size="11" font-weight="bold" fill="#333">NAT Gateway</text>
  <rect x="330" y="440" width="150" height="60" fill="white" stroke="#E5E7EB" rx="5"/>
  <rect x="330" y="450" width="150" height="10" fill="#1565C0" rx="5"/>
  <rect x="330" y="455" width="150" height="5" fill="#1565C0"/>
  <text x="335" y="475" font-size="11" font-weight="bold" fill="#333">Application Load Balancer</text>
  <rect x="580" y="220" width="150" height="60" fill="white" stroke="#E5E7EB" rx="5"/>
  <rect x="580" y="230" width="150" height="10" fill="#FF9900" rx="5"/>
  <rect x="580" y="235" width="150" height="5" fill="#FF9900"/>
  <text x="585" y="250" font-size="11" font-weight="bold" fill="#333">EC2</text>
  <rect x="580" y="330" width="150" height="60" fill="white" stroke="#E5E7EB" rx="5"/>
  <rect x="580" y="340" width="150" height="10" fill="#FF9900" rx="5"/>
  <rect x="580" y="345" width="150" height="5" fill="#FF9900"/>
  <text x="585" y="360" font-size="11" font-weight="bold" fill="#333">Lambda</text>
  <rect x="580" y="440" width="150" height="60" fill="white" stroke="#E5E7EB" rx="5"/>
  <rect x="580" y="450" width="150" height="10" fill="#6A1B9A" rx="5"/>
  <rect x="580" y="455" width="150" height="5" fill="#6A1B9A"/>
  <text x="585" y="475" font-size="11" font-weight="bold" fill="#333">RDS</text>
  <rect x="1230" y="185" width="100" height="120" fill="#2E7D32" stroke="#232F3E" rx="5"/>
  <rect x="1240" y="195" width="80" height="100" fill="white" stroke="#E5E7EB" rx="5"/>
  <rect x="1240" y="205" width="80" height="10" fill="#2E7D32" rx="5"/>
  <rect x="1240" y="210" width="80" height="5" fill="#2E7D32"/>
  <text x="1245" y="225" font-size="11" font-weight="bold" fill="#333">S3</text>
  <rect x="1230" y="350" width="100" height="120" fill="#C62828" stroke="#232F3E" rx="5"/>
  <rect x="1240" y="360" width="80" height="100" fill="white" stroke="#E5E7EB" rx="5"/>
  <rect x="1240" y="370" width="80" height="10" fill="#C62828" rx="5"/>
  <rect x="1240" y="375" width="80" height="5" fill="#C62828"/>
  <text x="1245" y="395" font-size="11" font-weight="bold" fill="#333">ElastiCache</text>
  <rect x="1230" y="560" width="100" height="120" fill="#01A88D" stroke="#232F3E" rx="5"/>
  <rect x="1240" y="570" width="80" height="100" fill="white" stroke="#E5E7EB" rx="5"/>
  <rect x="1240" y="580" width="80" height="10" fill="#01A88D" rx="5"/>
  <rect x="1240" y="585" width="80" height="5" fill="#01A88D"/>
  <text x="1245" y="605" font-size="11" font-weight="bold" fill="#333">Bedrock</text>
  <rect x="1180" y="785" width="100" height="120" fill="#1565C0" stroke="#232F3E" rx="5"/>
  <rect x="1190" y="795" width="80" height="100" fill="white" stroke="#E5E7EB" rx="5"/>
  <rect x="1190" y="805" width="80" height="10" fill="#1565C0" rx="5"/>
  <rect x="1190" y="810" width="80" height="5" fill="#1565C0"/>
  <text x="1195" y="825" font-size="11" font-weight="bold" fill="#333">CloudWatch</text>
  <line x1="100" y1="105" x2="100" y2="135" stroke="#FF9900" stroke-width="2" marker-end="url(#arr-org)"/>
  <text x="80" y="120" font-size="9" fill="#6B7280">HTTPS/443</text>
  <line x1="250" y1="270" x2="380" y2="270" stroke="#4B5563" stroke-width="1.5" marker-end="url(#arr)"/>
  <text x="280" y="280" font-size="9" fill="#6B7280">HTTP/80</text>
  <line x1="250" y1="380" x2="380" y2="380" stroke="#4B5563" stroke-width="1.5" marker-end="url(#arr)"/>
  <text x="280" y="390" font-size="9" fill="#6B7280">HTTP/80</text>
  <line x1="250" y1="490" x2="380" y2="490" stroke="#4B5563" stroke-width="1.5" marker-end="url(#arr)"/>
  <text x="280" y="500" font-size="9" fill="#6B7280">MySQL/3306</text>
  <line x1="430" y1="270" x2="580" y2="270" stroke="#4B5563" stroke-width="1.5" marker-end="url(#arr)"/>
  <text x="450" y="280" font-size="9" fill="#6B7280">HTTP/80</text>
  <line x1="430" y1="380" x2="580" y2="380" stroke="#4B5563" stroke-width="1.5" marker-end="url(#arr)"/>
  <text x="450" y="390" font-size="9" fill="#6B7280">Lambda Invoke</text>
  <line x1="430" y1="490" x2="580" y2="490" stroke="#4B5563" stroke-width="1.5" marker-end="url(#arr)"/>
  <text x="450" y="500" font-size="9" fill="#6B7280">MySQL/3306</text>
  <line x1="600" y1="270" x2="750" y2="270" stroke="#4B5563" stroke-width="1.5" marker-end="url(#arr)"/>
  <text x="620" y="280" font-size="9" fill="#6B7280">HTTP/80</text>
  <line x1="600" y1="380" x2="750" y2="380" stroke="#4B5563" stroke-width="1.5" marker-end="url(#arr)"/>
  <text x="620" y="390" font-size="9" fill="#6B7280">Lambda Invoke</text>
  <line x1="600" y1="490" x2="750" y2="490" stroke="#4B5563" stroke-width="1.5" marker-end="url(#arr)"/>
  <text x="620" y="500" font-size="9" fill="#6B7280">MySQL/3306</text>
  <line x1="800" y1="270" x2="950" y2="270" stroke="#4B5563" stroke-width="1.5" marker-end="url(#arr)"/>
  <text x="820" y="280" font-size="9" fill="#6B7280">HTTP/80</text>
  <line x1="800" y1="380" x2="950" y2="380" stroke="#4B5563" stroke-width="1.5" marker-end="url(#arr)"/>
  <text x="820" y="390" font-size="9" fill="#6B7280">Lambda Invoke</text>
  <line x1="800" y1="490" x2="950" y2="490" stroke="#4B5563" stroke-width="1.5" marker-end="url(#arr)"/>
  <text x="820" y="500" font-size="9" fill="#6B7280">MySQL/3306</text>
  <line x1="380" y1="310" x2="500" y2="310" stroke="#4B5563" stroke-width="1.5" marker-end="url(#arr)"/>
  <text x="400" y="320" font-size="9" fill="#6B7280">Outbound only</text>
  <line x1="1100" y1="270" x2="1280" y2="270" stroke="#4B5563" stroke-width="1.5" marker-end="url(#arr)"/>
  <text x="1120" y="280" font-size="9" fill="#6B7280">S3 API</text>
  <line x1="1100" y1="380" x2="1280" y2="380" stroke="#4B5563" stroke-width="1.5" marker-end="url(#arr)"/>
  <text x="1120" y="390" font-size="9" fill="#6B7280">ElastiCache API</text>
  <line x1="1100" y1="520" x2="1280" y2="520" stroke="#4B5563" stroke-width="1.5" marker-end="url(#arr)"/>
  <text x="1120" y="530" font-size="9" fill="#6B7280">Bedrock API</text>
  <rect x="1100" y="860" width="200" height="60" fill="white" stroke="#E5E7EB" rx="5"/>
  <text x="1110" y="880" font-size="14" font-weight="bold" fill="#333">LEGEND</text>
  <rect x="1110" y="890" width="20" height="20" fill="#F1F8E9" stroke="#2E7D32"/>
  <text x="1140" y="905" font-size="10" fill="#333">Public Subnet</text>
  <rect x="1110" y="915" width="20" height="20" fill="#E8F0FE" stroke="#1565C0"/>
  <text x="1140" y="930" font-size="10" fill="#333">Private Subnet</text>
  <rect x="1110" y="940" width="20" height="20" fill="#F3E5F5" stroke="#6A1B9A"/>
  <text x="1140" y="955" font-size="10" fill="#333">Database Subnet</text>
</svg>